<svg id="Ebene_1" data-name="Ebene 1" xmlns="http://www.w3.org/2000/svg" viewBox="0 0 200 200"><defs><style>.cls-1{fill:#fff;}</style></defs><title>Schule_weiss</title><path class="cls-1" d="M100,80.26a20.49,20.49,0,1,0,20.49,20.49A20.51,20.51,0,0,0,100,80.26Zm0,33.07a12.58,12.58,0,1,1,12.58-12.58A12.59,12.59,0,0,1,100,113.33Z"/><rect class="cls-1" x="41.43" y="141.89" width="9.23" height="13.61"/><rect class="cls-1" x="41.43" y="163" width="9.23" height="13.61"/><path class="cls-1" d="M112.37,149.23H87.48a4.62,4.62,0,0,0-4.62,4.61s0,.09,0,.14,0,.08,0,.13v30.11a4.62,4.62,0,0,0,9.23,0V158.46h15.82v25.76a4.62,4.62,0,0,0,9.23,0V154.11a5,5,0,0,0-4.77-4.88Z"/><rect class="cls-1" x="149.34" y="141.89" width="9.23" height="13.61"/><rect class="cls-1" x="149.34" y="163" width="9.23" height="13.61"/><path class="cls-1" d="M183.58,100.52H139.12V88.13l-9.22-4.77v101a4.61,4.61,0,1,0,9.22,0v-56.1h44.46a4.62,4.62,0,0,0,4.62-4.62V105.13A4.62,4.62,0,0,0,183.58,100.52ZM179,119.05H139.28v-9.3H179Z"/><path class="cls-1" d="M21.69,184.22a4.62,4.62,0,0,0,9.23,0V136.05H21.69Z"/><path class="cls-1" d="M169.08,184.22a4.62,4.62,0,0,0,9.23,0V136.05h-9.23Z"/><path class="cls-1" d="M60.88,100.52H16.42a4.62,4.62,0,0,0-4.62,4.61v18.53a4.62,4.62,0,0,0,4.62,4.62H60.88v56.1a4.62,4.62,0,1,0,9.23,0V83.17l-9.23,4.77Zm-.16,18.53H21v-9.3H60.72Z"/><path class="cls-1" d="M50.54,84a4.61,4.61,0,0,0,2.12-.52L100,59l47.34,24.5a4.61,4.61,0,1,0,4.24-8.19L104.9,51.13a5.74,5.74,0,0,0-.43-.66,4.46,4.46,0,0,0,.09-.91V42.34l26.32-10.65a3.88,3.88,0,0,0,.81-.42h0a4.06,4.06,0,0,0,.9-.8c.07-.07.12-.15.18-.22a4.61,4.61,0,0,0,.64-1.06s0,0,0,0,0-.18.08-.27a5.54,5.54,0,0,0,.17-.58c0-.13,0-.27,0-.4s0-.32.05-.49,0-.3,0-.46,0-.29,0-.43a5,5,0,0,0-.16-.55,2.46,2.46,0,0,0-.09-.29s0,0,0,0a4.71,4.71,0,0,0-.33-.63c0-.06-.06-.12-.1-.18a4.59,4.59,0,0,0-1.08-1.12c-.06,0-.11-.1-.18-.14a2.15,2.15,0,0,0-.26-.14,4,4,0,0,0-.54-.29l0,0L102,11.34a4.62,4.62,0,0,0-5.11,1.14,4.61,4.61,0,0,0-1.51,3.39V49.56a4.34,4.34,0,0,0,.13,1,5.07,5.07,0,0,0-.36.54L48.42,75.29A4.61,4.61,0,0,0,50.54,84Zm54-61.63,12.33,5-12.33,5Z"/></svg>